<svg height="511pt" viewBox="0 0 511 511.93385" width="511pt" xmlns="http://www.w3.org/2000/svg" xmlns:xlink="http://www.w3.org/1999/xlink"><linearGradient id="a" gradientTransform="matrix(219.964844 0 0 219.925781 205.371094 206.589844)" gradientUnits="userSpaceOnUse" x1=".147935" x2=".860429" y1=".139589" y2=".852175"><stop offset="0" stop-color="#e0e9f5"/><stop offset=".172" stop-color="#e0e9f5"/><stop offset=".2" stop-color="#e0e9f5"/><stop offset=".2" stop-color="#ebedf5"/><stop offset=".201" stop-color="#f6f2f5"/><stop offset=".202" stop-color="#fdf5f5"/><stop offset=".205" stop-color="#fff6f5"/><stop offset=".252" stop-color="#fff6f5"/><stop offset=".26" stop-color="#fff6f5"/><stop offset=".26" stop-color="#e0e9f5"/><stop offset=".397" stop-color="#e0e9f5"/><stop offset=".42" stop-color="#e0e9f5"/><stop offset=".42" stop-color="#ebedf5"/><stop offset=".421" stop-color="#f6f2f5"/><stop offset=".422" stop-color="#fdf5f5"/><stop offset=".425" stop-color="#fff6f5"/><stop offset=".489" stop-color="#fff6f5"/><stop offset=".5" stop-color="#fff6f5"/><stop offset=".5" stop-color="#f4f2f5"/><stop offset=".5" stop-color="#e9edf5"/><stop offset=".5" stop-color="#e2eaf5"/><stop offset=".501" stop-color="#e0e9f5"/><stop offset=".706" stop-color="#e0e9f5"/><stop offset=".74" stop-color="#e0e9f5"/><stop offset=".741" stop-color="#fff6f5"/><stop offset=".835" stop-color="#fff6f5"/><stop offset=".85" stop-color="#fff6f5"/><stop offset=".851" stop-color="#e0e9f5"/></linearGradient><path d="m427.132812 8.535156h-384c-18.851562 0-34.132812 15.28125-34.132812 34.132813v315.730469c0 18.851562 15.28125 34.136718 34.132812 34.136718h384c18.851563 0 34.132813-15.285156 34.132813-34.136718v-315.730469c0-18.851563-15.28125-34.132813-34.132813-34.132813zm0 0" fill="#b2cdf8"/><path d="m403.460938 8.535156h-362.253907c-18.3125.546875-32.722656 15.820313-32.207031 34.132813v315.730469c-.515625 18.3125 13.894531 33.585937 32.207031 34.136718h362.253907c18.3125-.550781 32.722656-15.824218 32.207031-34.136718v-315.730469c.515625-18.3125-13.894531-33.585938-32.207031-34.132813zm0 0" fill="#e7ebf4"/><path d="m230.867188 349.867188h-170.667969c-4.492188.1875-8.296875-3.277344-8.53125-7.765626v-240.46875c.234375-4.492187 4.039062-7.953124 8.53125-7.765624h349.867187c4.492188-.1875 8.300782 3.273437 8.535156 7.765624v239.699219c0 4.714844-3.820312 8.535157-8.535156 8.535157zm0 0" fill="#e7ebf4"/><path d="m405.859375 381.355469 93.015625 93.011719c4.296875 4.300781 5.976562 10.566406 4.402344 16.4375-1.574219 5.871093-6.160156 10.457031-12.03125 12.03125-5.871094 1.574218-12.136719-.105469-16.4375-4.402344l-93.097656-93.101563zm0 0" fill="#b2cdf8"/><path d="m394.621094 394.15625c-2.875 2.910156-5.925782 5.644531-9.128906 8.191406-44.167969 35.367188-107.875 31.828125-147.851563-8.214844-39.976563-40.039062-43.410156-103.753906-7.96875-147.859374 2.542969-3.128907 5.246094-6.121094 8.109375-8.960938 43.585938-41.644531 112.449219-40.859375 155.074219 1.765625s43.410156 111.492187 1.765625 155.078125zm0 0" fill="url(#a)"/><path d="m41.207031 392.535156h25.597657c-18.3125-.550781-32.71875-15.824218-32.203126-34.136718v-315.730469c-.515624-18.3125 13.890626-33.585938 32.203126-34.132813h-25.597657c-18.3125.546875-32.722656 15.820313-32.207031 34.132813v315.730469c-.515625 18.3125 13.894531 33.585937 32.207031 34.136718zm0 0" fill="#fff"/><path d="m.46875 358.398438v-315.730469h17.066406v315.730469zm0 0" fill="#fff"/><g fill="#51a1ff"><path d="m9 264.535156c4.714844 0 8.535156-3.824218 8.535156-8.535156v-213.332031c0-14.140625 11.460938-25.601563 25.597656-25.601563h384c14.140626 0 25.601563 11.460938 25.601563 25.601563v349.867187c0 4.710938 3.820313 8.53125 8.53125 8.53125 4.714844 0 8.535156-3.820312 8.535156-8.53125v-349.867187c-.027343-23.554688-19.113281-42.6406252-42.667969-42.667969h-384c-23.550781.0273438-42.636718 19.113281-42.664062 42.667969v213.332031c0 2.261719.898438 4.433594 2.496094 6.035156 1.601562 1.597656 3.773437 2.5 6.035156 2.5zm0 0"/><path d="m4.222656 297.214844c.476563.324218.992188.582031 1.535156.769531.484376.246094 1 .417969 1.535157.511719.566406.09375 1.136719.152344 1.707031.171875 2.257812-.035157 4.421875-.917969 6.058594-2.476563.773437-.816406 1.378906-1.769531 1.792968-2.816406 1.289063-3.183594.585938-6.824219-1.792968-9.300781-.816406-.769531-1.769532-1.378907-2.816406-1.792969-1.023438-.4375-2.125-.667969-3.242188-.679688-2.257812.03125-4.421875.914063-6.058594 2.472657-3.300781 3.367187-3.300781 8.753906 0 12.117187zm0 0"/><path d="m43.132812 401.066406h153.601563c4.710937 0 8.53125-3.820312 8.53125-8.53125 0-4.714844-3.820313-8.535156-8.53125-8.535156h-153.601563c-14.136718 0-25.597656-11.460938-25.597656-25.601562v-34.132813c0-4.710937-3.820312-8.53125-8.535156-8.53125-4.710938 0-8.53125 3.820313-8.53125 8.53125v34.132813c.027344 23.554687 19.113281 42.640624 42.664062 42.667968zm0 0"/><path d="m418.601562 213.332031c4.710938 0 8.53125-3.820312 8.53125-8.53125v-102.402343c0-9.425782-7.640624-17.066407-17.066406-17.066407h-349.867187c-9.207031-.195312-16.835938 7.09375-17.066407 16.300781v240.46875c.230469 9.207032 7.859376 16.492188 17.066407 16.296876h119.46875c4.710937 0 8.53125-3.820313 8.53125-8.53125 0-4.714844-3.820313-8.535157-8.53125-8.535157h-42.667969v-34.132812h34.132812c4.714844 0 8.535157-3.820313 8.535157-8.53125 0-4.714844-3.820313-8.535157-8.535157-8.535157h-34.132812v-34.132812h51.199219c4.714843 0 8.535156-3.820312 8.535156-8.535156 0-4.710938-3.820313-8.53125-8.535156-8.53125h-51.199219v-34.132813h93.867188c4.714843 0 8.535156-3.820312 8.535156-8.535156 0-4.710937-3.820313-8.53125-8.535156-8.53125h-93.867188v-34.132813h273.066406v51.199219c0 4.710938 3.820313 8.53125 8.535156 8.53125zm-298.667968-110.933593v34.136718h-59.734375v-34.136718zm0 238.933593h-59.734375v-34.132812h59.734375zm0-51.199219h-59.734375v-34.132812h59.734375zm0-51.199218h-59.734375v-34.132813h59.734375zm0-51.199219h-59.734375v-34.132813h59.734375zm17.066406-51.199219v-34.136718h273.066406v34.136718zm0 0"/><path d="m77.265625 59.734375c4.714844 0 8.535156-3.820313 8.535156-8.535156 0-4.710938-3.820312-8.53125-8.535156-8.53125h-17.066406c-4.710938 0-8.53125 3.820312-8.53125 8.53125 0 4.714843 3.820312 8.535156 8.53125 8.535156zm0 0"/><path d="m128.46875 59.734375c4.710938 0 8.53125-3.820313 8.53125-8.535156 0-4.710938-3.820312-8.53125-8.53125-8.53125h-17.066406c-4.714844 0-8.535156 3.820312-8.535156 8.53125 0 4.714843 3.820312 8.535156 8.535156 8.535156zm0 0"/><path d="m196.734375 59.734375c4.710937 0 8.53125-3.820313 8.53125-8.535156 0-4.710938-3.820313-8.53125-8.53125-8.53125h-34.132813c-4.714843 0-8.535156 3.820312-8.535156 8.53125 0 4.714843 3.820313 8.535156 8.535156 8.535156zm0 0"/><path d="m418.601562 42.667969h-187.734374c-4.710938 0-8.53125 3.820312-8.53125 8.53125 0 4.714843 3.820312 8.535156 8.53125 8.535156h187.734374c4.710938 0 8.53125-3.820313 8.53125-8.535156 0-4.710938-3.820312-8.53125-8.53125-8.53125zm0 0"/><path d="m316.449219 230.398438c-5.628907 0-11.242188.546874-16.761719 1.640624-10.921875 2.167969-21.308594 6.46875-30.566406 12.664063-4.675782 3.128906-9.035156 6.707031-13.011719 10.691406-2.21875 2.140625-3.109375 5.316407-2.328125 8.296875.78125 2.984375 3.113281 5.316406 6.09375 6.097656 2.984375.777344 6.15625-.109374 8.300781-2.328124 3.191407-3.179688 6.6875-6.039063 10.4375-8.535157 7.382813-4.945312 15.675781-8.378906 24.394531-10.101562 4.425782-.886719 8.925782-1.34375 13.441407-1.359375 4.710937 0 8.53125-3.820313 8.53125-8.53125 0-4.714844-3.820313-8.535156-8.53125-8.535156zm0 0"/><path d="m242.8125 292.265625c-4.617188-.910156-9.097656 2.09375-10.015625 6.707031-1.109375 5.519532-1.671875 11.132813-1.683594 16.761719 0 4.710937 3.820313 8.53125 8.535157 8.53125 4.710937 0 8.53125-3.820313 8.53125-8.53125 0-4.511719.441406-9.015625 1.316406-13.441406.914062-4.613281-2.074219-9.097657-6.683594-10.027344zm0 0"/><path d="m416.894531 380.3125c33.039063-51.324219 22.101563-119.296875-25.375-157.660156-47.472656-38.367188-116.226562-34.800782-159.476562 8.273437-43.246094 43.074219-47.089844 111.816407-8.914063 159.445313 38.175782 47.625 106.101563 58.839844 157.558594 26.003906l88.070312 88.054688c9.96875 9.988281 26.148438 10.007812 36.136719.039062s10.003907-26.144531.039063-36.132812zm-172.867187 7.824219c-39.988282-39.988281-39.988282-104.824219 0-144.8125 39.992187-39.988281 104.824218-39.988281 144.816406 0 39.988281 39.988281 39.988281 104.824219 0 144.8125-19.109375 19.378906-45.1875 30.285156-72.398438 30.285156-27.214843 0-53.292968-10.90625-72.402343-30.285156zm248.8125 104.304687c-3.304688 3.28125-8.640625 3.28125-11.945313 0l-86.410156-86.417968c2.1875-1.886719 4.371094-3.746094 6.445313-5.820313 2.070312-2.070313 3.761718-4.070313 5.578124-6.152344l86.394532 86.375c1.625 1.578125 2.539062 3.753907 2.523437 6.019531-.015625 2.269532-.953125 4.429688-2.601562 5.988282zm0 0"/></g></svg>